<?xml version="1.0" standalone="no"?>
<!DOCTYPE svg PUBLIC "-//W3C//DTD SVG 20010904//EN"
 "http://www.w3.org/TR/2001/REC-SVG-20010904/DTD/svg10.dtd">
<svg version="1.0" xmlns="http://www.w3.org/2000/svg"
 width="256.000000pt" height="256.000000pt" viewBox="0 0 256.000000 256.000000"
 preserveAspectRatio="xMidYMid meet">
<metadata>
Created by potrace 1.11, written by Peter Selinger 2001-2013
</metadata>
<g transform="translate(0.000000,256.000000) scale(0.100000,-0.100000)"
fill="#000000" stroke="none">
<path d="M715 2541 c-40 -18 -255 -217 -255 -236 0 -6 -19 -23 -41 -40 -52
-38 -101 -106 -150 -208 l-39 -80 5 -196 c6 -233 8 -251 45 -406 16 -66 31
-150 35 -187 10 -105 -13 -89 -64 45 -23 61 -47 120 -52 129 -5 10 -9 24 -9
31 0 7 -34 55 -75 107 -41 52 -75 97 -75 102 0 4 -9 22 -20 40 l-20 33 0 -837
0 -838 300 0 c294 0 300 0 290 19 -5 11 -10 33 -10 50 0 17 -4 50 -10 73 -32
143 -40 182 -36 186 3 2 21 -14 41 -36 19 -22 79 -75 131 -119 68 -56 103 -92
120 -125 l24 -48 855 0 855 0 0 74 0 75 -57 17 c-32 9 -89 18 -128 18 -67 2
-72 3 -130 48 -53 41 -92 79 -197 190 -20 21 -35 28 -55 26 -25 -3 -29 -8 -33
-48 -6 -44 -60 -130 -122 -195 -25 -26 -40 -24 -32 3 5 16 5 16 -9 0 -8 -10
-19 -18 -24 -18 -6 0 -22 -11 -37 -25 -14 -13 -26 -21 -26 -17 0 4 -5 0 -10
-8 -6 -10 -10 -11 -10 -2 0 6 -7 12 -15 12 -13 0 -14 4 -4 21 8 17 8 20 -1 14
-9 -6 -12 0 -8 23 3 22 1 29 -9 25 -18 -7 -16 1 12 55 26 48 33 92 15 92 -5 0
-10 5 -10 11 0 5 -16 31 -35 56 -19 25 -35 52 -35 59 0 7 -9 16 -20 19 -11 3
-20 14 -21 23 0 9 -2 26 -5 37 -2 11 -7 49 -10 85 -14 165 -32 199 -149 290
-54 41 -153 94 -199 106 -28 7 -29 6 -22 -29 6 -31 3 -38 -18 -52 -17 -11 -42
-16 -73 -14 -26 1 -70 -1 -96 -5 -43 -8 -51 -6 -74 15 -42 39 -63 99 -70 202
-7 108 8 190 39 211 27 19 42 12 113 -52 116 -105 186 -136 264 -118 46 11
111 58 111 81 0 19 37 47 66 51 14 1 27 4 28 6 37 57 37 73 -3 115 -17 18 -19
27 -12 42 13 23 -21 57 -99 97 -54 29 -57 29 -210 27 -161 -3 -248 -16 -257
-39 -4 -10 -10 -11 -25 -3 -11 6 -36 11 -56 11 -20 0 -52 10 -73 24 -21 13
-45 21 -54 18 -9 -4 -15 -1 -15 9 0 8 -5 17 -12 19 -7 3 -8 9 -3 19 5 8 10 19
11 24 0 6 2 15 2 22 1 6 8 18 15 25 17 19 34 48 50 83 8 17 29 43 46 58 18 15
29 27 25 27 -5 0 -3 5 4 12 7 7 12 26 12 43 0 27 6 35 38 51 20 10 39 22 42
25 3 4 16 10 30 14 14 4 41 18 60 31 48 32 94 40 122 22 34 -21 108 -41 149
-39 21 0 42 -5 48 -13 7 -8 35 -20 62 -27 28 -7 55 -21 60 -31 5 -9 31 -42 58
-72 37 -43 52 -71 66 -123 20 -76 40 -118 91 -200 20 -30 49 -92 66 -136 16
-45 36 -100 44 -122 8 -22 24 -68 35 -102 11 -35 22 -63 25 -63 2 0 2 29 -2
64 -6 59 -5 64 17 80 13 9 33 16 44 16 47 0 62 24 68 112 10 140 -8 404 -32
466 -12 30 -19 63 -15 76 3 13 -1 37 -9 52 -20 38 -63 78 -75 70 -6 -3 -13 6
-16 20 -8 29 -114 189 -173 259 -36 43 -88 70 -116 59 -7 -2 -23 6 -37 19 -54
50 -104 57 -417 57 -259 0 -292 -2 -328 -19z m622 -1097 c-3 -3 -12 -4 -19 -1
-8 3 -5 6 6 6 11 1 17 -2 13 -5z m-207 -560 c0 -21 4 -24 20 -19 15 5 20 2 20
-12 0 -11 6 -25 13 -32 9 -10 9 -15 0 -18 -7 -2 -9 -11 -6 -19 3 -9 -1 -14
-12 -14 -9 0 -15 6 -13 12 3 7 -6 21 -18 31 -13 10 -21 24 -17 32 3 9 0 22 -7
30 -6 8 -9 19 -5 25 11 19 25 10 25 -16z m10 -104 c0 -5 -4 -10 -10 -10 -5 0
-10 5 -10 10 0 6 5 10 10 10 6 0 10 -4 10 -10z m-75 -170 c-5 -8 -11 -8 -17
-2 -6 6 -7 16 -3 22 5 8 11 8 17 2 6 -6 7 -16 3 -22z m221 -56 c30 -20 54 -39
54 -44 0 -4 11 -19 25 -34 40 -43 45 -58 33 -107 -6 -24 -16 -51 -23 -59 -7
-8 -15 -22 -18 -31 -5 -15 -52 -31 -102 -34 -11 -1 -31 -4 -45 -9 -33 -9 -150
9 -167 27 -17 16 -8 25 57 60 100 53 106 179 10 204 l-32 9 28 13 c16 7 40 19
54 27 40 21 68 17 126 -22z"/>
<path d="M1960 1446 c0 -22 2 -23 25 -13 17 8 20 13 10 15 -8 2 -15 8 -15 13
0 5 -4 9 -10 9 -5 0 -10 -11 -10 -24z"/>
<path d="M2034 1449 c-3 -6 -1 -16 5 -22 8 -8 11 -5 11 11 0 24 -5 28 -16 11z"/>
<path d="M1978 1359 c-19 -11 -25 -39 -9 -39 6 0 22 -22 37 -50 15 -27 31 -50
36 -50 13 0 9 92 -5 120 -14 28 -34 34 -59 19z"/>
<path d="M1860 1163 c1 -13 29 -59 30 -48 0 21 -13 55 -21 55 -5 0 -9 -3 -9
-7z"/>
</g>
</svg>
